<svg width="37" height="22" viewBox="0 0 37 22" fill="none" xmlns="http://www.w3.org/2000/svg">
<path d="M35.9713 19.1341C35.9407 20.6377 34.7359 21.1453 33.5683 20.3131C31.3909 18.7891 29.2285 17.2441 27.0577 15.7117C27.0631 16.4209 27.0535 18.0913 27.0571 18.8179C27.0565 20.1655 26.3869 20.8213 25.0111 20.8219L13.2895 20.8231C11.3035 20.8237 9.31811 20.8243 7.33211 20.8219C3.57791 20.8177 1.05491 18.3583 1.05371 14.7013V3.17832C1.05371 1.81152 1.70231 1.17432 3.09371 1.17432C7.86431 1.26492 16.1995 1.18452 20.8765 1.17612C24.1915 1.17972 26.5897 3.24132 26.9905 6.28812C29.1841 4.74012 31.3687 3.17951 33.5683 1.63932C34.5829 0.903115 35.9185 1.13952 35.9713 2.81892C35.9857 8.09052 36.0031 13.8523 35.9713 19.1341Z" fill="#F1F1F1"/>
<path d="M36.5845 18.1681C36.5821 18.0631 36.5875 16.5265 36.5839 16.3693C36.5599 15.2731 34.9447 15.2809 34.9237 16.3693C34.9261 17.6623 34.9273 17.9257 34.9117 19.5229C32.3695 17.7487 29.9323 15.7897 27.3499 14.0905C27.3505 12.0643 27.3511 10.0375 27.3487 8.0107C29.9323 6.3133 32.3689 4.3525 34.9117 2.5789C34.9345 4.9243 34.9207 10.2481 34.9249 12.6031C34.9381 13.6915 36.5695 13.6951 36.5851 12.6031C36.5845 11.2621 36.5839 5.1547 36.5839 3.9331C36.5821 3.7801 36.5779 3.4351 36.5701 2.3815C36.5173 0.670898 35.2039 0.304297 34.0843 1.1293C31.8085 2.7655 29.5495 4.4245 27.2803 6.0697C26.8657 2.8321 24.3847 0.640897 20.9563 0.636697C20.9563 0.636697 17.6821 0.635498 17.6815 0.635498C16.5931 0.657098 16.5871 2.2735 17.6815 2.2957L20.9551 2.2969C23.7829 2.3005 25.6849 4.2031 25.6885 7.0321C25.6657 11.2543 25.7449 15.5965 25.6591 19.8049C25.6303 19.8169 25.5205 19.8529 25.2325 19.8529L13.0657 19.8541C11.0269 19.8541 8.98746 19.8553 6.94806 19.8529C3.96606 19.8499 2.11326 17.9941 2.11266 15.0091C2.13486 10.8067 2.06466 6.5275 2.13906 2.3407C2.17206 2.3281 2.28367 2.2957 2.55727 2.2957L12.9577 2.3599C14.0533 2.3497 14.0539 0.721897 12.9679 0.699697L2.56206 0.635498C1.12266 0.635498 0.452465 1.3123 0.451865 2.7649C0.451265 6.8467 0.450665 10.9285 0.451865 15.0097C0.452465 18.8965 3.06246 21.5101 6.94566 21.5137C8.05806 21.5149 9.17046 21.5155 10.2829 21.5155C12.0577 21.5047 23.2183 21.5215 25.2325 21.5137C27.8083 21.5491 27.3085 19.2463 27.3493 17.4343C27.3493 16.9843 27.3487 16.5337 27.3493 16.0837C28.1275 16.6489 28.9057 17.2141 29.6827 17.7805C31.1473 18.8479 32.6125 19.9159 34.0843 20.9737C34.1605 21.0289 34.7023 21.4027 35.2789 21.4027C35.4547 21.4027 35.6335 21.3673 35.8033 21.2791C36.8731 20.7733 36.5173 18.5503 36.5845 18.1681Z" fill="black"/>
</svg>
