<svg width="21" height="22" viewBox="0 0 21 22" fill="none" xmlns="http://www.w3.org/2000/svg">
<g clip-path="url(#clip0_1_983)">
<path d="M12.4239 11.4328L20.6009 3.25557C21.133 2.72368 21.133 1.86368 20.6009 1.33178C20.069 0.799888 19.209 0.799888 18.6771 1.33178L10.4999 9.50902L2.3229 1.33178C1.79075 0.799888 0.931003 0.799888 0.399108 1.33178C-0.133036 1.86368 -0.133036 2.72368 0.399108 3.25557L8.57609 11.4328L0.399108 19.61C-0.133036 20.1419 -0.133036 21.0019 0.399108 21.5338C0.664184 21.7992 1.01272 21.9324 1.361 21.9324C1.70929 21.9324 2.05757 21.7992 2.3229 21.5338L10.4999 13.3566L18.6771 21.5338C18.9424 21.7992 19.2907 21.9324 19.639 21.9324C19.9873 21.9324 20.3356 21.7992 20.6009 21.5338C21.133 21.0019 21.133 20.1419 20.6009 19.61L12.4239 11.4328Z" fill="#505050"/>
</g>
<defs>
<clipPath id="clip0_1_983">
<rect width="21" height="21" fill="white" transform="translate(0 0.915771)"/>
</clipPath>
</defs>
</svg>
