<svg width="223" height="40" viewBox="0 0 223 40" fill="none" xmlns="http://www.w3.org/2000/svg">
<rect x="0.893555" y="35.4976" width="221.704" height="3.69507" rx="1.84754" fill="#E4E4E4"/>
<rect x="0.893555" y="35.4976" width="66.5113" height="3.69507" rx="1.84754" fill="#009345"/>
<rect x="41.5391" y="0.394531" width="51.731" height="25.8655" rx="5.54261" fill="#1B1D21"/>
<mask id="path-4-inside-1_188_1345" fill="white">
<path d="M63.71 26.26H71.1001V29.9551H63.71V26.26Z"/>
</mask>
<path d="M63.71 26.26V22.5649H60.0149V26.26H63.71ZM71.1001 26.26H74.7952V22.5649H71.1001V26.26ZM63.71 29.9551H71.1001V22.5649H63.71V29.9551ZM67.405 26.26V29.9551H74.7952V26.26H67.405ZM67.405 29.9551V26.26H60.0149V29.9551H67.405Z" fill="url(#paint0_diamond_188_1345)" mask="url(#path-4-inside-1_188_1345)"/>
<path d="M58.2512 17.5139C57.6143 17.5139 57.0471 17.4045 56.5496 17.1856C56.0549 16.9638 55.664 16.6596 55.3769 16.273C55.0926 15.8835 54.9461 15.4343 54.9376 14.9254H56.797C56.8083 15.1386 56.878 15.3262 57.0059 15.4883C57.1367 15.6475 57.3101 15.7712 57.5262 15.8593C57.7423 15.9474 57.9853 15.9915 58.2554 15.9915C58.5369 15.9915 58.7857 15.9417 59.0017 15.8422C59.2178 15.7427 59.387 15.6048 59.5092 15.4286C59.6315 15.2523 59.6926 15.049 59.6926 14.8187C59.6926 14.5856 59.6272 14.3795 59.4964 14.2004C59.3685 14.0184 59.1837 13.8763 58.942 13.7739C58.7032 13.6716 58.4189 13.6204 58.0891 13.6204H57.2746V12.2643H58.0891C58.3677 12.2643 58.6137 12.2159 58.8269 12.1193C59.0429 12.0226 59.2107 11.889 59.3301 11.7184C59.4495 11.545 59.5092 11.3431 59.5092 11.1128C59.5092 10.8939 59.4566 10.702 59.3514 10.5371C59.2491 10.3694 59.1041 10.2386 58.9164 10.1448C58.7316 10.051 58.5156 10.0041 58.2682 10.0041C58.018 10.0041 57.7892 10.0495 57.5816 10.1405C57.3741 10.2287 57.2078 10.3552 57.0827 10.5201C56.9576 10.685 56.8908 10.8783 56.8822 11.1001H55.1125C55.121 10.5968 55.2646 10.1533 55.5432 9.76951C55.8218 9.3857 56.1971 9.08576 56.669 8.86969C57.1438 8.65078 57.6797 8.54132 58.2768 8.54132C58.8795 8.54132 59.4069 8.65078 59.8589 8.86969C60.3109 9.0886 60.6621 9.38428 60.9122 9.75672C61.1653 10.1263 61.2904 10.5414 61.2875 11.002C61.2904 11.491 61.1383 11.8989 60.8312 12.2259C60.527 12.5528 60.1304 12.7604 59.6414 12.8485V12.9168C60.2839 12.9992 60.7729 13.2224 61.1084 13.5863C61.4467 13.9474 61.6145 14.3994 61.6116 14.9424C61.6145 15.4399 61.4709 15.882 61.1809 16.2687C60.8938 16.6553 60.4972 16.9595 59.9911 17.1813C59.485 17.4031 58.9051 17.5139 58.2512 17.5139ZM66.3634 17.5864C65.6299 17.5836 64.9988 17.4031 64.4699 17.0448C63.944 16.6866 63.5389 16.1678 63.2546 15.4883C62.9731 14.8088 62.8338 13.9914 62.8366 13.0362C62.8366 12.0837 62.9774 11.2721 63.2588 10.6011C63.5431 9.93014 63.9483 9.41982 64.4742 9.07012C65.003 8.71759 65.6327 8.54132 66.3634 8.54132C67.0941 8.54132 67.7224 8.71759 68.2483 9.07012C68.7771 9.42266 69.1837 9.93441 69.468 10.6054C69.7523 11.2735 69.893 12.0837 69.8902 13.0362C69.8902 13.9943 69.748 14.8131 69.4637 15.4925C69.1823 16.172 68.7786 16.6909 68.2526 17.0491C67.7266 17.4073 67.0969 17.5864 66.3634 17.5864ZM66.3634 16.0555C66.8638 16.0555 67.2632 15.8039 67.5617 15.3006C67.8603 14.7974 68.0081 14.0426 68.0053 13.0362C68.0053 12.3737 67.937 11.8222 67.8006 11.3815C67.6669 10.9408 67.4765 10.6096 67.2291 10.3879C66.9846 10.1661 66.696 10.0552 66.3634 10.0552C65.8659 10.0552 65.4679 10.304 65.1693 10.8015C64.8708 11.2991 64.7201 12.0439 64.7173 13.0362C64.7173 13.7071 64.7841 14.2672 64.9177 14.7164C65.0542 15.1627 65.2461 15.4982 65.4934 15.7228C65.7408 15.9446 66.0308 16.0555 66.3634 16.0555ZM75.9874 15.7569V15.2964C75.9874 14.9467 76.0614 14.6254 76.2092 14.3326C76.3599 14.0369 76.5774 13.8009 76.8617 13.6247C77.1488 13.4456 77.4985 13.356 77.9108 13.356C78.3287 13.356 78.6798 13.4441 78.9641 13.6204C79.2512 13.7967 79.4673 14.0326 79.6123 14.3283C79.7601 14.6212 79.8341 14.9438 79.8341 15.2964V15.7569C79.8341 16.1066 79.7601 16.4293 79.6123 16.725C79.4645 17.0178 79.247 17.2524 78.9598 17.4286C78.6727 17.6078 78.323 17.6973 77.9108 17.6973C77.4928 17.6973 77.1417 17.6078 76.8574 17.4286C76.5731 17.2524 76.357 17.0178 76.2092 16.725C76.0614 16.4293 75.9874 16.1066 75.9874 15.7569ZM77.2284 15.2964V15.7569C77.2284 15.9588 77.2768 16.1493 77.3734 16.3284C77.4729 16.5075 77.652 16.5971 77.9108 16.5971C78.1695 16.5971 78.3457 16.5089 78.4396 16.3327C78.5362 16.1564 78.5846 15.9645 78.5846 15.7569V15.2964C78.5846 15.0888 78.5391 14.8955 78.4481 14.7164C78.3571 14.5373 78.178 14.4477 77.9108 14.4477C77.6549 14.4477 77.4772 14.5373 77.3777 14.7164C77.2782 14.8955 77.2284 15.0888 77.2284 15.2964ZM71.5054 10.7589V10.2983C71.5054 9.94578 71.5807 9.62309 71.7314 9.33026C71.8821 9.03459 72.0996 8.79861 72.3839 8.62235C72.671 8.44608 73.0179 8.35794 73.4244 8.35794C73.8452 8.35794 74.1977 8.44608 74.4821 8.62235C74.7664 8.79861 74.9824 9.03459 75.1303 9.33026C75.2781 9.62309 75.352 9.94578 75.352 10.2983V10.7589C75.352 11.1114 75.2767 11.4341 75.126 11.7269C74.9782 12.0198 74.7607 12.2543 74.4735 12.4306C74.1892 12.604 73.8395 12.6907 73.4244 12.6907C73.0094 12.6907 72.6582 12.6026 72.3711 12.4263C72.0868 12.2472 71.8707 12.0127 71.7229 11.7227C71.5779 11.4298 71.5054 11.1086 71.5054 10.7589ZM72.7549 10.2983V10.7589C72.7549 10.9664 72.8032 11.1583 72.8999 11.3346C72.9994 11.5109 73.1743 11.599 73.4244 11.599C73.686 11.599 73.8637 11.5109 73.9575 11.3346C74.0542 11.1583 74.1025 10.9664 74.1025 10.7589V10.2983C74.1025 10.0908 74.057 9.89745 73.966 9.71834C73.8751 9.53922 73.6945 9.44967 73.4244 9.44967C73.1714 9.44967 72.9966 9.54065 72.8999 9.7226C72.8032 9.90455 72.7549 10.0965 72.7549 10.2983ZM72.0683 17.3945L78.0728 8.66073H79.1901L73.1856 17.3945H72.0683Z" fill="white"/>
<defs>
<radialGradient id="paint0_diamond_188_1345" cx="0" cy="0" r="1" gradientUnits="userSpaceOnUse" gradientTransform="translate(67.405 26.26) scale(3.69507)">
<stop offset="1" stop-color="#1B1D21"/>
<stop offset="1" stop-opacity="0"/>
</radialGradient>
</defs>
</svg>
