<svg width="50" height="49" viewBox="0 0 50 49" fill="none" xmlns="http://www.w3.org/2000/svg">
<rect x="0.833496" y="0.0949707" width="48.5617" height="48.5617" rx="24.2809" fill="white"/>
<rect x="1.23818" y="0.499652" width="47.7524" height="47.7524" rx="23.8762" stroke="#0B0B0B" stroke-opacity="0.1" stroke-width="0.809363"/>
<path d="M30.0359 25.6912H26.9343V34.8977H22.7989V25.6912H19.4492V21.8688H22.7989V18.9918C22.7989 17.3478 23.2538 16.0874 24.1636 15.2106C25.0734 14.3064 26.2865 13.8542 27.8028 13.8542C28.2439 13.8542 28.7126 13.8816 29.2088 13.9364C29.7051 13.9638 30.0911 14.0049 30.3668 14.0598L30.7803 14.1009V17.3478H29.1261C28.3542 17.3478 27.789 17.5533 27.4306 17.9643C27.0998 18.3479 26.9343 18.8274 26.9343 19.4028V21.8688H30.6149L30.0359 25.6912Z" fill="#1977F3"/>
</svg>
