<svg width="50" height="49" viewBox="0 0 50 49" fill="none" xmlns="http://www.w3.org/2000/svg">
<rect x="0.809326" y="0.0949707" width="48.5617" height="48.5617" rx="24.2809" fill="white"/>
<rect x="1.21401" y="0.499652" width="47.7524" height="47.7524" rx="23.8762" stroke="#0B0B0B" stroke-opacity="0.1" stroke-width="0.809363"/>
<path d="M35.6091 22.994C35.6091 22.3013 35.5464 21.6437 35.4389 21.0037H25.3159V24.958H31.112C30.8522 26.2557 30.0907 27.3517 28.962 28.097V30.7274H32.4199C34.4445 28.8949 35.6091 26.1943 35.6091 22.994Z" fill="#4285F4"/>
<path d="M25.3158 33.2793C28.2183 33.2793 30.6461 32.3324 32.4198 30.7279L28.9619 28.0975C27.9944 28.7288 26.7671 29.1145 25.3158 29.1145C22.5119 29.1145 20.1379 27.2645 19.2869 24.7656H15.7214V27.4749C17.4862 30.912 21.1144 33.2793 25.3158 33.2793Z" fill="#34A853"/>
<path d="M19.287 24.7648C19.063 24.1335 18.9466 23.4584 18.9466 22.757C18.9466 22.0555 19.072 21.3804 19.287 20.7491V18.0398H15.7215C14.987 19.4602 14.5659 21.056 14.5659 22.757C14.5659 24.458 14.987 26.0537 15.7215 27.4742L19.287 24.7648Z" fill="#FBBC05"/>
<path d="M25.3158 16.4004C26.9015 16.4004 28.3169 16.9352 29.4367 17.9786L32.5004 14.98C30.6461 13.279 28.2183 12.2356 25.3158 12.2356C21.1144 12.2356 17.4862 14.603 15.7214 18.04L19.2869 20.7493C20.1379 18.2504 22.5119 16.4004 25.3158 16.4004Z" fill="#EA4335"/>
</svg>
