<svg width="15" height="8" viewBox="0 0 15 8" fill="none" xmlns="http://www.w3.org/2000/svg">
<path fill-rule="evenodd" clip-rule="evenodd" d="M0.451392 0.317686C0.653624 0.152922 0.954104 0.179741 1.12253 0.377574C2.23599 1.6855 4.25569 3.31758 7.42789 3.31758C10.6 3.31758 12.6197 1.68551 13.7332 0.377587C13.9016 0.179754 14.2021 0.152942 14.4043 0.317699C14.6065 0.482463 14.634 0.776406 14.4655 0.974245C14.1221 1.37761 13.6967 1.81263 13.1839 2.22975C13.2114 2.25994 13.2354 2.29417 13.2548 2.33212L14.5256 4.81836C14.6432 5.04866 14.5478 5.32867 14.3125 5.44382C14.077 5.55897 13.7908 5.46559 13.6731 5.23535L12.4222 2.78784C11.6291 3.30868 10.6759 3.75712 9.54964 4.01543L10.1189 6.80014C10.1705 7.05259 10.0032 7.29816 9.74511 7.34866C9.48706 7.39915 9.23603 7.23546 9.18437 6.983L8.61116 4.17925C8.2338 4.22519 7.83949 4.24989 7.42789 4.24989C7.01622 4.24989 6.6219 4.22519 6.24448 4.17925L5.6713 6.983C5.61968 7.23546 5.36863 7.39915 5.11056 7.34866C4.85248 7.29816 4.68512 7.05259 4.73673 6.80014L5.30606 4.01537C4.37685 3.80229 3.56544 3.45976 2.86459 3.05395L1.13758 5.30657C0.979669 5.5125 0.680976 5.55429 0.470425 5.39982C0.259881 5.24529 0.21721 4.95313 0.375121 4.74714L2.07007 2.53636C1.37526 2.03058 0.818817 1.47774 0.390171 0.974232C0.221747 0.776393 0.249156 0.48245 0.451392 0.317686Z" fill="#009345"/>
</svg>
