<svg width="171" height="171" viewBox="0 0 171 171" fill="none" xmlns="http://www.w3.org/2000/svg">
<path d="M85.481 170.996C37.0873 170.803 -1.36581 131.191 0.0372065 82.9336C1.3774 36.8283 39.1416 -0.324405 86.1636 0.00213613C133.521 0.332866 171.465 39.0093 170.996 86.1907C170.527 133.228 131.961 171.473 85.481 170.996ZM87.2942 73.33C78.627 73.6145 70.8768 76.6141 63.7216 81.3428C63.1164 81.7424 62.5363 82.2365 62.0777 82.7954C60.4445 84.7882 61.0036 86.4755 63.4661 87.1181C64.4126 87.3649 65.3841 87.5344 66.314 87.8319C70.2466 89.0855 71.3064 91.0135 70.3094 95.0889C67.8847 104.996 65.4115 114.893 63.0285 124.811C61.2611 132.171 64.9907 138.189 72.0582 138.735C82.5179 139.541 91.8531 136.091 100.25 130.033C101.14 129.393 101.829 127.798 101.735 126.722C101.678 126.069 99.9549 125.531 98.9456 125.007C98.5204 124.788 98.0054 124.746 97.5321 124.618C92.854 123.369 91.6373 121.413 92.7702 116.748C95.1158 107.073 97.6096 97.4335 99.7999 87.7231C100.319 85.4245 100.355 82.7831 99.7728 80.5159C98.4683 75.467 94.0477 73.1331 87.2942 73.33ZM109.056 43.6963C109.068 34.7664 102.164 27.7206 93.342 27.662C84.3712 27.6013 77.1674 34.731 77.2429 43.5915C77.3184 52.4228 84.3398 59.3556 93.2414 59.385C101.921 59.4141 109.041 52.3494 109.056 43.6963Z" fill="#0D72B9"/>
</svg>
