<svg width="15" height="16" viewBox="0 0 15 16" fill="none" xmlns="http://www.w3.org/2000/svg">
<g clip-path="url(#clip0_194_2145)">
<path d="M12.9566 0.885986C13.3921 0.885986 13.8098 1.05901 14.1178 1.36699C14.4258 1.67497 14.5988 2.09269 14.5988 2.52824V13.2029C14.5988 13.6384 14.4258 14.0562 14.1178 14.3641C13.8098 14.6721 13.3921 14.8451 12.9566 14.8451H2.2819C1.84635 14.8451 1.42864 14.6721 1.12065 14.3641C0.812671 14.0562 0.639648 13.6384 0.639648 13.2029V2.52824C0.639648 2.09269 0.812671 1.67497 1.12065 1.36699C1.42864 1.05901 1.84635 0.885986 2.2819 0.885986H12.9566ZM12.9566 2.52824H2.2819V13.2029H12.9566V2.52824ZM10.4932 9.09726C10.7025 9.09749 10.9038 9.17763 11.0559 9.3213C11.2081 9.46497 11.2997 9.66133 11.312 9.87026C11.3242 10.0792 11.2563 10.2849 11.1219 10.4454C10.9876 10.6059 10.7971 10.709 10.5892 10.7338L10.4932 10.7395H4.74528C4.53599 10.7393 4.33469 10.6591 4.18251 10.5155C4.03032 10.3718 3.93874 10.1754 3.92648 9.96651C3.91421 9.75758 3.98219 9.55185 4.11652 9.39136C4.25085 9.23086 4.44139 9.12772 4.64921 9.103L4.74528 9.09726H10.4932ZM10.4932 4.99162C10.7025 4.99185 10.9038 5.07199 11.0559 5.21566C11.2081 5.35934 11.2997 5.5557 11.312 5.76463C11.3242 5.97355 11.2563 6.17928 11.1219 6.33977C10.9876 6.50027 10.7971 6.60341 10.5892 6.62813L10.4932 6.63387H4.74528C4.53599 6.63364 4.33469 6.5535 4.18251 6.40983C4.03032 6.26616 3.93874 6.0698 3.92648 5.86087C3.91421 5.65194 3.98219 5.44621 4.11652 5.28572C4.25085 5.12523 4.44139 5.02209 4.64921 4.99737L4.74528 4.99162H10.4932Z" fill="#11142D"/>
</g>
<defs>
<clipPath id="clip0_194_2145">
<rect width="14.7803" height="14.7803" fill="white" transform="translate(0.229492 0.475342)"/>
</clipPath>
</defs>
</svg>
