<svg width="86" height="109" viewBox="0 0 86 109" fill="none" xmlns="http://www.w3.org/2000/svg">
<path d="M10.7701 64.14C11.8301 63.67 12.5801 62.37 13.3001 61.33C13.5801 60.92 13.6001 60.51 14.2401 60.69C14.3601 60.69 14.7301 60.38 14.7301 60.2C14.7301 59.65 14.8401 59.31 15.5101 59.36C15.7201 59.36 15.9601 59.17 16.1701 59.03C16.3106 58.9143 16.4733 58.8286 16.648 58.7779C16.8228 58.7272 17.0061 58.7126 17.1867 58.7351C17.3673 58.7575 17.5414 58.8166 17.6984 58.9085C17.8555 59.0005 17.9921 59.1235 18.1001 59.27C18.2001 59.38 18.3001 59.48 18.3901 59.59C19.7101 61.18 20.5601 61.44 22.4501 60.45C24.9142 59.1854 27.5533 58.2956 30.2801 57.81C31.4649 57.6687 32.6569 57.5953 33.8501 57.59C33.5701 57.23 33.3101 56.94 33.0901 56.59C32.8701 56.24 32.4901 55.93 32.4701 55.59C32.342 54.2607 32.3053 52.9242 32.3601 51.59C32.4228 50.8589 32.641 50.1498 33.0001 49.51C33.3701 48.84 32.9301 48.43 32.6701 48.03C31.8586 46.7334 31.324 45.283 31.1001 43.77C30.6021 41.1162 30.9775 38.3724 32.1701 35.95C32.3422 35.6908 32.4438 35.3913 32.4648 35.0809C32.4858 34.7705 32.4256 34.46 32.2901 34.18C32.213 33.9664 32.1795 33.7396 32.1915 33.5129C32.2036 33.2862 32.2609 33.0642 32.3601 32.86C33.4401 30.47 32.9401 28.07 32.5001 25.43C31.661 25.758 30.8704 26.1987 30.1501 26.74C28.7178 27.9876 27.0376 28.918 25.2201 29.47C23.9401 29.98 22.6101 30.36 21.3301 30.87C20.947 31.0932 20.6081 31.3846 20.3301 31.7299C20.1501 31.9099 20.0401 32.24 19.8301 32.3C18.8301 32.63 18.6101 33.45 18.3501 34.3C18.3128 34.3757 18.2535 34.4384 18.1801 34.4799C18.0837 34.5167 17.9828 34.5403 17.8801 34.55C17.8801 34.02 17.8301 33.55 17.8101 33.01L17.5901 32.96L16.9301 35.57L16.5601 35.51C16.5601 34.69 16.6301 33.88 16.6701 33.06H16.3801C16.2801 33.89 16.1701 34.72 16.0701 35.55H15.8001C15.6101 34.99 15.4301 34.43 15.2401 33.87L14.3301 35.11L13.9801 34.93L14.7901 32.85L14.1401 32.4C15.0982 31.7741 16.1009 31.2193 17.1401 30.74C19.4734 29.6868 21.6505 28.3172 23.6101 26.67C24.9001 25.73 26.1701 24.76 27.4901 23.86C28.9901 22.86 29.6901 21.23 30.6401 19.79C31.0301 19.19 31.4101 18.58 31.8201 17.99C32.1359 17.5114 32.6033 17.1527 33.1472 16.9714C33.6912 16.79 34.2803 16.7966 34.8201 16.99C36.1601 17.29 37.5201 17.54 39.0501 17.85C39.1207 17.0749 39.1207 16.295 39.0501 15.52C38.6601 14.0623 38.6601 12.5277 39.0501 11.07C39.185 10.6296 39.4275 10.2298 39.7558 9.90683C40.084 9.58381 40.4876 9.34773 40.9301 9.21996C43.6501 8.31996 46.5001 9.29995 46.9301 12.7299C47.0381 13.2622 46.9418 13.8156 46.6601 14.28C46.1296 14.994 45.7858 15.8293 45.6601 16.71C45.5944 17.2962 45.3941 17.8593 45.0749 18.3554C44.7558 18.8515 44.3263 19.2671 43.8201 19.57C43.3501 19.8 43.4201 21.26 43.9601 21.88C44.5001 22.5 45.3601 23.34 46.0701 24.05C46.9801 24.93 47.8601 25.84 48.8101 26.68C49.7601 27.52 50.8101 28.37 51.8601 29.2C52.2801 29.55 52.7201 29.88 53.1701 30.2C53.6201 30.52 53.9601 30.68 53.7201 31.36C53.6501 31.57 54.1801 32.26 54.4901 32.36C56.3501 32.6 57.8901 33.59 59.4901 34.36C61.3494 35.2878 63.414 35.7282 65.4901 35.64C66.6436 35.5786 67.8003 35.6423 68.9401 35.83C69.5627 36.0285 70.1525 36.3184 70.6901 36.69L70.5501 37L68.8101 36.62L68.7301 36.8L70.3201 37.96L70.2301 38.24L67.5801 37.79C67.5801 37.9 67.5101 38 67.4701 38.1L69.6601 39.15C69.3501 39.62 69.3501 39.62 68.4301 39.34L66.9701 38.92L66.8601 39.15L68.4601 40.07C67.8701 40.56 67.3501 40.15 66.8201 39.93C66.0401 39.59 65.2501 39.26 64.4801 38.93C63.9501 38.67 63.4801 38.36 62.9301 38.08C62.792 37.9826 62.6289 37.9271 62.4601 37.92C60.7301 38.14 59.1801 37.44 57.6401 36.86C55.6401 36.11 53.7101 35.22 51.7501 34.41C51.6201 34.35 51.3901 34.3 51.3101 34.41C50.7601 34.9 50.3101 34.59 49.8801 34.25C48.6101 33.36 47.3101 32.52 46.0001 31.69C45.6813 31.5527 45.3446 31.4618 45.0001 31.42C45.0001 31.71 44.8801 32 44.8601 32.29C44.8531 33.0384 44.6965 33.7779 44.3994 34.4648C44.1023 35.1518 43.6707 35.7723 43.1301 36.29C43.7401 36.54 44.2501 36.78 44.7701 36.96C47.0501 37.75 48.7701 39.37 50.7701 40.67C51.9934 41.4724 53.289 42.1587 54.6401 42.72C55.6175 43.0583 56.4755 43.6732 57.1101 44.49C58.0691 45.7537 59.2604 46.8228 60.6201 47.64C62.3601 48.76 63.8801 50.21 65.6201 51.41C67.5698 52.9422 69.7875 54.0986 72.1601 54.82C72.3947 54.9159 72.6517 54.9433 72.9013 54.8991C73.1509 54.8548 73.3828 54.7407 73.5701 54.57C74.1718 54.1051 74.8106 53.6904 75.4801 53.33C75.4201 53.63 75.3601 53.96 75.2901 54.33L73.9001 54.85V55.12C75.0368 55.6472 76.2602 55.9623 77.5101 56.05C78.3815 56.0315 79.2533 56.0682 80.1201 56.16L80.9001 54.94C83.7191 50.6791 85.4686 45.8012 86.0001 40.72C85.3171 41.0617 84.5638 41.2397 83.8001 41.24C82.4647 41.2333 81.1867 40.6965 80.2471 39.7476C79.3076 38.7986 78.7835 37.5153 78.7901 36.18C78.7967 34.8446 79.3336 33.5666 80.2825 32.627C81.2314 31.6874 82.5147 31.1633 83.8501 31.17C84.4885 31.1681 85.1209 31.2939 85.7101 31.54C85.0301 26.16 83.7101 20.95 80.4601 16.3C72.3201 4.51996 60.6201 0.219956 46.1401 0.0799561C44.8201 0.229956 42.7501 0.329955 40.7301 0.719955C30.4701 2.71996 21.4501 7.04996 15.1001 15.63C14.3701 16.63 13.6801 17.63 13.1001 18.68C9.91629 23.6177 8.58421 29.5236 9.34009 35.35C9.58882 36.9132 9.48826 38.5122 9.04564 40.032C8.60301 41.5518 7.82931 42.9547 6.78009 44.14C4.92009 46.36 2.95009 48.52 1.19009 50.83C-0.699908 53.3 -0.0599129 55.25 2.81009 56.36C3.13717 56.4881 3.471 56.5982 3.81009 56.69C7.28009 57.69 7.86009 58.69 6.81009 62.24C6.57947 62.8313 6.49628 63.4699 6.56772 64.1006C6.63915 64.7313 6.86305 65.3352 7.22009 65.86C7.50602 66.5981 7.62552 67.3903 7.57008 68.18C7.57008 68.18 8.84009 65 10.7701 64.14Z" fill="#019147"/>
<path d="M74.42 76.23C73.6741 74.1355 73.3967 71.9028 73.6075 69.6895C73.8183 67.4762 74.5121 65.336 75.64 63.42C76.42 62.02 77.23 60.64 78.05 59.27C77.5241 59.4088 76.9896 59.5124 76.45 59.58C74.75 59.8054 73.1303 60.4403 71.73 61.43C71.2763 61.6013 70.7779 61.6135 70.3165 61.4645C69.855 61.3155 69.4578 61.0142 69.19 60.61C68.9549 60.2786 68.807 59.8935 68.76 59.49C68.7185 59.0926 68.5813 58.7113 68.3601 58.3786C68.1389 58.046 67.8403 57.7719 67.49 57.58C65.4484 56.0694 63.1982 54.8635 60.81 54C58.1702 53.181 55.841 51.5805 54.13 49.41C53.83 48.8638 53.4092 48.3933 52.8996 48.0346C52.3901 47.6758 51.8053 47.4382 51.19 47.34C49.36 47.14 47.51 47.01 45.67 46.97C45.3321 46.9871 45.0099 47.1179 44.7558 47.3412C44.5016 47.5645 44.3304 47.8671 44.27 48.2C44.1012 48.7867 43.8117 49.3317 43.42 49.8C43.1496 50.0559 42.9374 50.3669 42.7977 50.712C42.6579 51.057 42.5939 51.428 42.61 51.8C42.67 52.8 42.55 53.71 42.61 54.65C42.69 55.43 42.24 55.77 41.75 56.18C41.467 56.4135 41.2499 56.7168 41.12 57.06C40.6 58.61 40.2 60.2 39.63 61.73C39.4034 62.4356 38.9432 63.043 38.3251 63.4521C37.707 63.8611 36.968 64.0473 36.23 63.98C32.75 63.98 29.23 63.93 25.79 64.14C23.9115 64.3622 22.0504 64.713 20.22 65.19C18.8275 65.3602 17.5109 65.918 16.42 66.8C15.9274 67.1569 15.338 67.3557 14.73 67.37C13.3246 67.5164 11.9845 68.0379 10.85 68.88C9.99639 69.4349 9.06666 69.8627 8.08996 70.15C7.99518 70.1907 7.89311 70.2117 7.78995 70.2117C7.6868 70.2117 7.58474 70.1907 7.48997 70.15C7.46434 70.5815 7.59576 71.0078 7.85996 71.35C9.85996 73.24 9.39996 75.14 8.68996 77.35C8.1664 78.6658 8.17763 80.1341 8.72126 81.4418C9.26488 82.7495 10.2979 83.7931 11.6 84.35C13.109 85.1125 14.7406 85.6034 16.42 85.8C19.85 86.17 23.31 86.24 26.76 86.45C29.93 86.64 31.93 88.29 33.28 91.17C35.54 95.99 37.99 100.73 40.48 105.44C42.4 109.08 43.39 109.44 47.16 107.86C51.7965 105.887 56.1782 103.362 60.2099 100.34L67.34 94.22C69.9077 91.7062 72.3157 89.0343 74.55 86.22C75.296 85.3682 75.7858 84.3228 75.9627 83.2044C76.1397 82.086 75.9966 80.9404 75.55 79.9C75.12 78.7 74.85 77.44 74.42 76.23Z" fill="#0D72B9"/>
</svg>
