<svg width="19" height="17" viewBox="0 0 19 17" fill="none" xmlns="http://www.w3.org/2000/svg">
<path d="M18.0222 7.77827L11.4324 1.18834C11.2443 1.00023 10.9936 0.896973 10.7262 0.896973C10.4586 0.896973 10.208 1.00037 10.0199 1.18834L9.42162 1.78679C9.23366 1.9746 9.13011 2.22546 9.13011 2.49294C9.13011 2.76027 9.23366 3.01959 9.42162 3.2074L13.266 7.06025H1.0522C0.501522 7.06025 0.0664062 7.49136 0.0664062 8.04219V8.88824C0.0664062 9.43907 0.501522 9.91365 1.0522 9.91365H13.3096L9.42177 13.788C9.23381 13.9761 9.13026 14.2202 9.13026 14.4876C9.13026 14.7548 9.23381 15.0024 9.42177 15.1904L10.0201 15.7869C10.2082 15.975 10.4587 16.0775 10.7264 16.0775C10.9937 16.0775 11.2444 15.9737 11.4325 15.7856L18.0223 9.19577C18.2109 9.00707 18.3146 8.75517 18.3138 8.48739C18.3144 8.21873 18.2109 7.96668 18.0222 7.77827Z" fill="#041B32"/>
</svg>
