<svg width="13" height="18" viewBox="0 0 13 18" fill="none" xmlns="http://www.w3.org/2000/svg">
<path d="M4.39269 2.18982V15.5289C4.39269 16.0113 4.20105 16.474 3.85993 16.8151C3.51881 17.1562 3.05614 17.3479 2.57372 17.3479H1.9674C1.48498 17.3479 1.02232 17.1562 0.6812 16.8151C0.340078 16.474 0.148438 16.0113 0.148438 15.5289V2.18982C0.148438 1.7074 0.340078 1.24473 0.6812 0.903612C1.02232 0.56249 1.48498 0.37085 1.9674 0.37085H2.57372C3.05614 0.37085 3.51881 0.56249 3.85993 0.903612C4.20105 1.24473 4.39269 1.7074 4.39269 2.18982ZM10.4559 0.37085H9.84959C9.36717 0.37085 8.90451 0.56249 8.56338 0.903612C8.22226 1.24473 8.03062 1.7074 8.03062 2.18982V15.5289C8.03062 16.0113 8.22226 16.474 8.56338 16.8151C8.90451 17.1562 9.36717 17.3479 9.84959 17.3479H10.4559C10.9383 17.3479 11.401 17.1562 11.7421 16.8151C12.0832 16.474 12.2749 16.0113 12.2749 15.5289V2.18982C12.2749 1.7074 12.0832 1.24473 11.7421 0.903612C11.401 0.56249 10.9383 0.37085 10.4559 0.37085Z" fill="#009345"/>
</svg>
