<svg width="21" height="17" viewBox="0 0 21 17" fill="none" xmlns="http://www.w3.org/2000/svg">
<path fill-rule="evenodd" clip-rule="evenodd" d="M9.83904 1.07833C10.0349 1.15952 10.2022 1.29694 10.3199 1.47323C10.4376 1.64953 10.5004 1.85676 10.5004 2.06875V14.9312C10.5003 15.1432 10.4375 15.3504 10.3197 15.5267C10.2019 15.7029 10.0345 15.8402 9.83867 15.9213C9.64284 16.0025 9.42736 16.0237 9.21947 15.9823C9.01158 15.9409 8.8206 15.8389 8.6707 15.689L4.69726 11.7156H1.92539C1.64111 11.7156 1.36848 11.6027 1.16746 11.4016C0.966448 11.2007 0.853516 10.928 0.853516 10.6437V6.35625C0.853516 6.07196 0.966448 5.79933 1.16746 5.59831C1.36848 5.39729 1.64111 5.28437 1.92539 5.28437H4.69726L8.6707 1.31093C8.8206 1.16093 9.01161 1.05878 9.21959 1.01738C9.42755 0.97597 9.64314 0.997182 9.83904 1.07833ZM15.4921 0.920768C15.6931 0.719823 15.9657 0.606934 16.2499 0.606934C16.5342 0.606934 16.8068 0.719823 17.0077 0.920768C18.0044 1.91509 18.7948 3.09651 19.3336 4.39719C19.8723 5.69786 20.1489 7.09215 20.1473 8.49998C20.1489 9.90788 19.8723 11.3022 19.3336 12.6028C18.7948 13.9035 18.0044 15.0849 17.0077 16.0792C16.8056 16.2745 16.5348 16.3825 16.2538 16.3801C15.9727 16.3776 15.7039 16.2649 15.5052 16.0661C15.3065 15.8674 15.1937 15.5986 15.1912 15.3175C15.1888 15.0365 15.2968 14.7657 15.4921 14.5636C16.2897 13.7683 16.9222 12.8232 17.3532 11.7826C17.7843 10.7419 18.0052 9.6263 18.0035 8.49998C18.0035 6.13115 17.0453 3.98955 15.4921 2.4364C15.2911 2.23539 15.1783 1.9628 15.1783 1.67858C15.1783 1.39435 15.2911 1.12177 15.4921 0.920768ZM12.4598 3.95203C12.5594 3.85237 12.6776 3.77331 12.8077 3.71937C12.9378 3.66542 13.0773 3.63766 13.2181 3.63766C13.359 3.63766 13.4984 3.66542 13.6286 3.71937C13.7587 3.77331 13.8769 3.85237 13.9765 3.95203C14.5745 4.5487 15.0487 5.25764 15.3718 6.03813C15.695 6.8186 15.8608 7.65524 15.8598 8.49998C15.8608 9.34472 15.695 10.1813 15.3717 10.9619C15.0486 11.7423 14.5744 12.4512 13.9765 13.0479C13.7754 13.2491 13.5026 13.3621 13.2181 13.3621C12.9337 13.3621 12.6609 13.2491 12.4598 13.0479C12.2587 12.8469 12.1456 12.5741 12.1456 12.2896C12.1456 12.0052 12.2587 11.7324 12.4598 11.5312C12.8587 11.1338 13.175 10.6613 13.3907 10.1411C13.6063 9.62084 13.7169 9.06314 13.716 8.49998C13.7169 7.93685 13.6064 7.3791 13.3907 6.85886C13.1751 6.33861 12.8587 5.86618 12.4598 5.46873C12.3601 5.36918 12.2811 5.25097 12.2271 5.12085C12.1732 4.99072 12.1454 4.85124 12.1454 4.71038C12.1454 4.56952 12.1732 4.43003 12.2271 4.29992C12.2811 4.16979 12.3601 4.05158 12.4598 3.95203Z" fill="#041B32"/>
</svg>
