<svg width="19" height="17" viewBox="0 0 19 17" fill="none" xmlns="http://www.w3.org/2000/svg">
<path d="M0.977829 7.77827L7.56762 1.18834C7.75573 1.00023 8.00644 0.896973 8.27377 0.896973C8.5414 0.896973 8.79197 1.00037 8.98008 1.18834L9.57838 1.78679C9.76634 1.9746 9.86989 2.22546 9.86989 2.49294C9.86989 2.76027 9.76634 3.01959 9.57838 3.2074L5.73399 7.06025H17.9478C18.4985 7.06025 18.9336 7.49136 18.9336 8.04219V8.88824C18.9336 9.43907 18.4985 9.91365 17.9478 9.91365H5.69037L9.57823 13.788C9.76619 13.9761 9.86974 14.2202 9.86974 14.4876C9.86974 14.7548 9.76619 15.0024 9.57823 15.1904L8.97993 15.7869C8.79182 15.975 8.54125 16.0775 8.27362 16.0775C8.00629 16.0775 7.75558 15.9737 7.56747 15.7856L0.97768 9.19577C0.789125 9.00707 0.685429 8.75517 0.686171 8.48739C0.685577 8.21873 0.789125 7.96668 0.977829 7.77827Z" fill="#041B32"/>
</svg>
