<svg width="16" height="14" viewBox="0 0 16 14" fill="none" xmlns="http://www.w3.org/2000/svg">
<g clip-path="url(#clip0_188_1364)">
<path d="M12.3407 5.42698C12.5387 5.42701 12.7297 5.49969 12.8777 5.63125C13.0256 5.76281 13.1201 5.94409 13.1432 6.14071L13.1489 6.23528V12.7017C13.1489 12.8996 13.0762 13.0907 12.9447 13.2387C12.8131 13.3866 12.6319 13.4811 12.4353 13.5043L12.3407 13.5099H3.45087C3.25293 13.5099 3.06187 13.4372 2.91395 13.3057C2.76603 13.1741 2.67152 12.9928 2.64836 12.7962L2.64271 12.7017V6.23528C2.64293 6.02926 2.72181 5.8311 2.86321 5.6813C3.00462 5.53149 3.19788 5.44134 3.40351 5.42927C3.60914 5.41719 3.81162 5.48411 3.96958 5.61634C4.12754 5.74857 4.22906 5.93613 4.25339 6.14071L4.25904 6.23528V11.8934H11.5326V6.23528C11.5326 6.0373 11.6053 5.84622 11.7368 5.69827C11.8683 5.55032 12.0496 5.4558 12.2462 5.43264L12.3407 5.42698ZM9.91623 6.23528C10.1306 6.23528 10.3361 6.32044 10.4877 6.47202C10.6392 6.62361 10.7244 6.8292 10.7244 7.04358V9.46847C10.7244 9.68284 10.6392 9.88843 10.4877 10.04C10.3361 10.1916 10.1306 10.2768 9.91623 10.2768H5.87538C5.66104 10.2768 5.45548 10.1916 5.30392 10.04C5.15236 9.88843 5.06721 9.68284 5.06721 9.46847V7.04358C5.06721 6.8292 5.15236 6.62361 5.30392 6.47202C5.45548 6.32044 5.66104 6.23528 5.87538 6.23528H9.91623ZM9.10806 7.85187H6.68355V8.66017H9.10806V7.85187ZM13.9571 1.3855C14.1714 1.3855 14.377 1.47066 14.5285 1.62224C14.6801 1.77383 14.7652 1.97942 14.7652 2.19379V4.61869C14.7652 4.83306 14.6801 5.03865 14.5285 5.19024C14.377 5.34182 14.1714 5.42698 13.9571 5.42698H1.83454C1.6202 5.42698 1.41464 5.34182 1.26307 5.19024C1.11151 5.03865 1.02637 4.83306 1.02637 4.61869V2.19379C1.02637 1.97942 1.11151 1.77383 1.26307 1.62224C1.41464 1.47066 1.6202 1.3855 1.83454 1.3855H13.9571ZM13.1489 3.00209H2.64271V3.81039H13.1489V3.00209Z" fill="#11142D"/>
</g>
<defs>
<clipPath id="clip0_188_1364">
<rect width="14.6048" height="12.9327" fill="white" transform="translate(0.59375 0.981445)"/>
</clipPath>
</defs>
</svg>
