<svg width="42" height="41" viewBox="0 0 42 41" fill="none" xmlns="http://www.w3.org/2000/svg">
<path fill-rule="evenodd" clip-rule="evenodd" d="M21 40.5C32.0457 40.5 41 31.5457 41 20.5C41 9.4543 32.0457 0.5 21 0.5C9.9543 0.5 1 9.4543 1 20.5C1 31.5457 9.9543 40.5 21 40.5Z" fill="#009345" stroke="#009345" stroke-width="0.4"/>
<g clip-path="url(#clip0_160_1118)">
<path d="M28.8162 24.5942C27.5562 23.5292 26.8337 21.9725 26.8337 20.3233V18C26.8337 15.0675 24.6553 12.64 21.8337 12.2333V11.3333C21.8337 10.8725 21.4603 10.5 21.0003 10.5C20.5403 10.5 20.167 10.8725 20.167 11.3333V12.2333C17.3445 12.64 15.167 15.0675 15.167 18V20.3233C15.167 21.9725 14.4445 23.5292 13.177 24.6008C12.8528 24.8783 12.667 25.2817 12.667 25.7083C12.667 26.5125 13.3212 27.1667 14.1253 27.1667H27.8753C28.6795 27.1667 29.3337 26.5125 29.3337 25.7083C29.3337 25.2817 29.1478 24.8783 28.8162 24.5942Z" fill="white"/>
<path d="M21.0001 30.5C22.5093 30.5 23.7718 29.4242 24.0618 28H17.9385C18.2285 29.4242 19.491 30.5 21.0001 30.5Z" fill="white"/>
<circle cx="26.5" cy="15" r="5" fill="white" stroke="#009345"/>
<path d="M25.1914 13.185L26.5984 12.765H27.3334V17.7H26.2694V13.857L25.4154 14.067L25.1914 13.185Z" fill="#009345"/>
</g>
<defs>
<clipPath id="clip0_160_1118">
<rect width="20" height="20" fill="white" transform="translate(11 10.5)"/>
</clipPath>
</defs>
</svg>
