<svg width="30" height="30" viewBox="0 0 30 30" fill="none" xmlns="http://www.w3.org/2000/svg">
<path d="M15.1618 1.52124C7.62739 1.52124 1.51953 7.6291 1.51953 15.1635V24.7131C1.51953 26.9734 3.35188 28.8057 5.6122 28.8057C7.87254 28.8057 9.70488 26.9734 9.70488 24.7131V20.1656C9.70488 17.9053 7.87254 16.073 5.6122 16.073C4.77086 16.073 3.98882 16.3268 3.3385 16.7621V15.1635C3.3385 8.63367 8.63196 3.34021 15.1618 3.34021C21.6916 3.34021 26.985 8.63367 26.985 15.1635V16.7621C26.3347 16.3268 25.5527 16.073 24.7113 16.073C22.451 16.073 20.6187 17.9053 20.6187 20.1656V24.7131C20.6187 26.9734 22.451 28.8057 24.7113 28.8057C26.9717 28.8057 28.804 26.9734 28.804 24.7131V15.1635C28.804 7.6291 22.6962 1.52124 15.1618 1.52124Z" fill="#009345"/>
<path d="M16.0709 16.0728C16.0709 15.5705 15.6637 15.1633 15.1614 15.1633C14.6591 15.1633 14.252 15.5705 14.252 16.0728V27.8961C14.252 28.3984 14.6591 28.8056 15.1614 28.8056C15.6637 28.8056 16.0709 28.3984 16.0709 27.8961V16.0728Z" fill="#009345"/>
<path d="M18.7994 18.8013C18.7994 18.299 18.3923 17.8918 17.89 17.8918C17.3876 17.8918 16.9805 18.299 16.9805 18.8013V25.1677C16.9805 25.67 17.3876 26.0772 17.89 26.0772C18.3923 26.0772 18.7994 25.67 18.7994 25.1677V18.8013Z" fill="#009345"/>
<path d="M12.4329 17.8918C12.9352 17.8918 13.3424 18.299 13.3424 18.8013V25.1677C13.3424 25.67 12.9352 26.0772 12.4329 26.0772C11.9306 26.0772 11.5234 25.67 11.5234 25.1677V18.8013C11.5234 18.299 11.9306 17.8918 12.4329 17.8918Z" fill="#009345"/>
</svg>
