<svg width="20" height="19" viewBox="0 0 20 19" fill="none" xmlns="http://www.w3.org/2000/svg">
<g clip-path="url(#clip0_188_1341)">
<path d="M9.02459 0.241764C9.19108 0.169099 9.37079 0.131592 9.55245 0.131592C9.73412 0.131592 9.91382 0.169099 10.0803 0.241764L17.3385 3.40897C17.5739 3.51172 17.7743 3.68096 17.9149 3.89592C18.0556 4.11088 18.1304 4.36222 18.1303 4.6191V14.1207C18.1304 14.3776 18.0556 14.6289 17.9149 14.8439C17.7743 15.0589 17.5739 15.2281 17.3385 15.3309L10.0803 18.4981L9.92856 18.5535L9.89557 18.5627C9.78361 18.5924 9.66828 18.6075 9.55245 18.6076C9.49419 18.6074 9.436 18.6035 9.37826 18.5957C9.25638 18.5791 9.13737 18.5458 9.02459 18.4967L9.17635 18.5522C9.13246 18.539 9.08929 18.5236 9.04702 18.506L9.02459 18.4967L1.76641 15.3295C1.53097 15.2268 1.33064 15.0575 1.18999 14.8426C1.04934 14.6276 0.974485 14.3763 0.97461 14.1194V4.6191C0.974485 4.36222 1.04934 4.11088 1.18999 3.89592C1.33064 3.68096 1.53097 3.51172 1.76641 3.40897L9.02459 0.241764ZM3.61395 7.29407V13.2563L8.23279 15.2728V8.97401L3.61395 7.29407ZM15.491 7.29407L10.8721 8.97401V15.2741L15.491 13.2577V7.29407ZM9.55245 2.90354L4.85839 4.93846L9.55245 6.64611L14.2465 4.93846L9.55245 2.90354Z" fill="#009345"/>
</g>
<defs>
<clipPath id="clip0_188_1341">
<rect width="18.4754" height="18.4754" fill="white" transform="translate(0.80957 0.132324)"/>
</clipPath>
</defs>
</svg>
