<svg width="53" height="44" viewBox="0 0 53 44" fill="none" xmlns="http://www.w3.org/2000/svg">
<rect x="0.484375" width="51.731" height="44" rx="10" fill="#009345"/>
<g clip-path="url(#clip0_194_2148)">
<path d="M21.1334 28.8208C20.6722 28.8208 20.2299 28.6376 19.9038 28.3115C19.5777 27.9854 19.3945 27.5431 19.3945 27.0819V16.6488C19.3945 16.1876 19.5777 15.7453 19.9038 15.4192C20.2299 15.0931 20.6722 14.9099 21.1334 14.9099H31.5665C32.0277 14.9099 32.47 15.0931 32.7961 15.4192C33.1222 15.7453 33.3054 16.1876 33.3054 16.6488V27.0819C33.3054 27.5431 33.1222 27.9854 32.7961 28.3115C32.47 28.6376 32.0277 28.8208 31.5665 28.8208H21.1334ZM21.1334 27.0819H25.4805V22.7348H21.1334V27.0819ZM31.5665 22.7348H27.2194V27.0819H31.5665V22.7348ZM31.5665 20.9959V16.6488H27.2194V20.9959H31.5665ZM25.4805 16.6488H21.1334V20.9959H25.4805V16.6488Z" fill="white"/>
</g>
<defs>
<clipPath id="clip0_194_2148">
<rect width="14.7803" height="14.7803" fill="white" transform="translate(18.96 14.4753)"/>
</clipPath>
</defs>
</svg>
