<svg width="386" height="109" viewBox="0 0 386 109" fill="none" xmlns="http://www.w3.org/2000/svg">
<path d="M107.25 72.28C106.248 72.2774 105.288 71.8782 104.58 71.1699C103.872 70.4616 103.473 69.5017 103.47 68.5V16.64C103.485 15.6423 103.889 14.6898 104.594 13.9842C105.3 13.2787 106.252 12.8755 107.25 12.86C108.252 12.8626 109.212 13.2617 109.92 13.97C110.628 14.6784 111.027 15.6383 111.03 16.64V68.5C111.035 68.9979 110.941 69.4918 110.753 69.9529C110.565 70.4139 110.287 70.8327 109.935 71.1848C109.583 71.5369 109.164 71.8151 108.703 72.0032C108.242 72.1912 107.748 72.2854 107.25 72.28Z" fill="#019147"/>
<path d="M165.92 71.98C165.17 72.2464 164.36 72.2938 163.585 72.1167C162.809 71.9396 162.1 71.5454 161.54 70.98L125.02 27.07V68.5C125.02 69.5026 124.622 70.464 123.913 71.1729C123.204 71.8818 122.243 72.28 121.24 72.28C120.237 72.28 119.276 71.8818 118.567 71.1729C117.858 70.464 117.46 69.5026 117.46 68.5V16.64C117.457 15.8659 117.693 15.1096 118.136 14.4746C118.579 13.8396 119.207 13.3567 119.934 13.092C120.662 12.8273 121.453 12.7935 122.2 12.9954C122.948 13.1973 123.615 13.625 124.11 14.22L160.71 58.07V16.56C160.706 16.0625 160.801 15.5692 160.99 15.1088C161.178 14.6484 161.456 14.2301 161.808 13.8783C162.16 13.5265 162.578 13.2482 163.039 13.0596C163.499 12.8711 163.992 12.776 164.49 12.78C165.491 12.7853 166.449 13.1852 167.157 13.893C167.865 14.6007 168.265 15.5591 168.27 16.56V68.56C168.333 69.3136 168.133 70.0657 167.705 70.6889C167.276 71.3121 166.646 71.7682 165.92 71.98Z" fill="#019147"/>
<path d="M196.54 73.49C194.532 73.4905 192.526 73.3401 190.54 73.04C187.154 72.5451 183.88 71.4693 180.86 69.86C177.54 68.13 175.34 65.78 174.44 63.21C173.54 60.64 176.33 57.21 179.05 58.6C179.687 59.0401 180.228 59.6048 180.64 60.26C183.36 63.59 187.59 65.03 191.64 65.71C194.924 66.2329 198.274 66.1787 201.54 65.55C205.09 64.8 208.54 62.98 209.86 59.55C210.575 57.8163 210.653 55.8857 210.08 54.1C208.34 48.96 201.92 47.1 196.47 45.94C192.826 45.2474 189.257 44.2094 185.81 42.84C182.18 41.4 178.56 39.21 176.51 35.73C174.02 31.57 174.51 24.99 175.98 21.89C180.6 12.67 189.52 11.61 194.73 11.61C198.577 11.5857 202.396 12.2635 206 13.61C210.16 15.2 213.41 17.92 214.39 20.79C214.603 21.3887 214.652 22.0334 214.533 22.6574C214.413 23.2815 214.129 23.8623 213.71 24.34C213.266 24.9291 212.629 25.3432 211.91 25.5096C211.192 25.676 210.438 25.5841 209.78 25.25C209.407 24.97 209.053 24.6661 208.72 24.34C206.889 22.4144 204.637 20.9391 202.14 20.03C199.752 19.2466 197.24 18.9076 194.73 19.03C188.84 19.03 182.11 21.3 182.11 28.18C182.11 34.53 187.63 36.42 200.25 39.52C216.43 43.45 218.55 52.37 217.04 59.93C214.84 71.15 201.53 73.49 196.54 73.49Z" fill="#019147"/>
<path d="M227.42 72.28C226.418 72.2774 225.458 71.8782 224.75 71.1699C224.042 70.4616 223.643 69.5017 223.64 68.5V16.64C223.643 15.6383 224.042 14.6784 224.75 13.97C225.458 13.2617 226.418 12.8626 227.42 12.86H249.88C251.385 12.8775 252.883 13.079 254.34 13.46C257.546 14.2545 260.489 15.871 262.88 18.15C264.597 19.8709 265.936 21.9316 266.81 24.2C267.843 27.0071 268.354 29.9791 268.32 32.97C268.32 40.15 265.32 45.6 259.63 48.85C255.55 51.19 250.1 52.32 243.37 52.32C242.367 52.32 241.406 51.9217 240.697 51.2128C239.988 50.504 239.59 49.5425 239.59 48.54C239.59 47.5375 239.988 46.576 240.697 45.8671C241.406 45.1582 242.367 44.76 243.37 44.76C248.74 44.76 252.98 43.93 255.85 42.27C259.17 40.38 260.76 37.43 260.76 32.97C260.846 30.3989 260.275 27.8484 259.1 25.56C258.286 24.0992 257.081 22.8941 255.62 22.08C253.866 21.0769 251.898 20.5078 249.88 20.42H231.17V68.5C231.175 68.9953 231.082 69.4868 230.896 69.9458C230.71 70.4049 230.434 70.8223 230.085 71.174C229.736 71.5257 229.321 71.8046 228.863 71.9944C228.406 72.1843 227.915 72.2814 227.42 72.28Z" fill="#019147"/>
<path d="M278.5 72.28C277.498 72.2774 276.538 71.8782 275.83 71.1699C275.122 70.4616 274.723 69.5017 274.72 68.5V16.64C274.735 15.6423 275.139 14.6898 275.844 13.9842C276.55 13.2787 277.502 12.8755 278.5 12.86C279.502 12.8626 280.462 13.2617 281.17 13.97C281.878 14.6784 282.277 15.6383 282.28 16.64V68.5C282.285 68.9979 282.191 69.4918 282.003 69.9529C281.815 70.4139 281.537 70.8327 281.185 71.1848C280.833 71.5369 280.414 71.8151 279.953 72.0032C279.492 72.1912 278.998 72.2854 278.5 72.28Z" fill="#019147"/>
<path d="M329.23 72.21C328.352 72.1926 327.507 71.8757 326.834 71.3119C326.161 70.7481 325.701 69.9712 325.53 69.11C324.875 65.1459 323.408 61.3599 321.22 57.99C319.894 56.0104 318.064 54.4193 315.92 53.38C314.56 52.6763 313.068 52.2641 311.54 52.17C310.54 52.17 309.54 52.25 308.44 52.25C307.499 52.2356 306.598 51.871 305.912 51.2274C305.226 50.5839 304.804 49.7077 304.73 48.77C304.637 47.8485 304.893 46.9255 305.449 46.1845C306.005 45.4434 306.819 44.9385 307.73 44.77C308.996 44.5137 310.293 44.4396 311.58 44.55C314.818 44.4812 317.998 43.6776 320.88 42.2C324.21 40.31 325.8 37.36 325.8 32.9C325.873 30.3067 325.299 27.736 324.13 25.42C323.274 23.9951 322.082 22.8005 320.66 21.94C318.888 20.9818 316.922 20.4381 314.91 20.35H296.27V68.44C296.265 69.4409 295.865 70.3993 295.157 71.1071C294.449 71.8149 293.491 72.2148 292.49 72.22C291.492 72.2046 290.54 71.8013 289.834 71.0958C289.129 70.3902 288.725 69.4377 288.71 68.44V16.56C288.713 15.5583 289.112 14.5984 289.82 13.8901C290.528 13.1818 291.488 12.7827 292.49 12.78H314.94C319.777 12.882 324.406 14.7657 327.94 18.07C329.653 19.7767 330.995 21.8196 331.88 24.07C332.913 26.8771 333.424 29.8492 333.39 32.84C333.39 39.95 330.39 45.47 324.69 48.72C324.32 48.95 323.94 49.1 323.48 49.33C324.868 50.4886 326.113 51.8078 327.19 53.26C329.91 56.96 331.8 61.8 332.93 67.62C333.128 68.601 332.93 69.6205 332.379 70.456C331.828 71.2916 330.97 71.8754 329.99 72.08C329.68 72.13 329.42 72.21 329.23 72.21Z" fill="#019147"/>
<path d="M383.14 68.5C383.144 68.9975 383.049 69.4908 382.86 69.9512C382.672 70.4116 382.393 70.83 382.042 71.1818C381.69 71.5336 381.272 71.8118 380.811 72.0004C380.351 72.1889 379.857 72.284 379.36 72.28H343.22C342.722 72.2826 342.228 72.1868 341.767 71.998C341.306 71.8092 340.887 71.5312 340.534 71.18C340.181 70.8287 339.901 70.4111 339.71 69.9512C339.518 69.4913 339.42 68.9981 339.42 68.5V16.64C339.42 15.6375 339.818 14.676 340.527 13.9671C341.236 13.2582 342.197 12.86 343.2 12.86H378.58C379.582 12.86 380.544 13.2582 381.253 13.9671C381.962 14.676 382.36 15.6375 382.36 16.64C382.36 17.6425 381.962 18.604 381.253 19.3129C380.544 20.0217 379.582 20.42 378.58 20.42H346.98V38.64H374.98C375.982 38.6426 376.942 39.0417 377.65 39.75C378.358 40.4584 378.757 41.4183 378.76 42.42C378.765 42.9179 378.671 43.4118 378.483 43.8728C378.295 44.3339 378.017 44.7527 377.665 45.1048C377.313 45.4569 376.894 45.7351 376.433 45.9232C375.972 46.1112 375.478 46.2053 374.98 46.2H346.98V64.72H379.34C379.839 64.7133 380.335 64.8064 380.797 64.9937C381.26 65.1811 381.681 65.4589 382.035 65.811C382.389 66.1631 382.669 66.5823 382.859 67.044C383.048 67.5058 383.144 68.0008 383.14 68.5Z" fill="#019147"/>
<path d="M121.5 86.8899V104.07H118.69V92.2999L113.42 104.07H111.47L106.22 92.2999V104.07H103.42V86.8899H106.42L112.42 100.37L118.42 86.8899H121.5Z" fill="#0D72B9"/>
<path d="M134.95 89.1601V94.2101H140.89V96.5101H134.95V101.8H141.63V104.1H132.14V86.8601H141.63V89.1601H134.95Z" fill="#0D72B9"/>
<path d="M166.14 104.07H163.32L154.84 91.2401V104.07H152.02V86.8601H154.84L163.32 99.6701V86.8601H166.14V104.07Z" fill="#0D72B9"/>
<path d="M187.87 86.8899V89.1899H183.3V104.07H180.48V89.1899H175.88V86.8899H187.87Z" fill="#0D72B9"/>
<path d="M208 100.56H200.8L199.57 104.07H196.62L202.78 86.8601H206.04L212.2 104.07H209.2L208 100.56ZM207.21 98.2601L204.41 90.2601L201.59 98.2601H207.21Z" fill="#0D72B9"/>
<path d="M224.61 101.8H230.42V104.07H221.79V86.8899H224.6L224.61 101.8Z" fill="#0D72B9"/>
<path d="M263.16 86.8899V89.1899H255.87V94.2599H261.56V96.5599H255.87V104.07H253.05V86.8899H263.16Z" fill="#0D72B9"/>
<path d="M275.53 86.8899V104.07H272.71V86.8899H275.53Z" fill="#0D72B9"/>
<path d="M297.26 86.8899V89.1899H292.69V104.07H289.87V89.1899H285.27V86.8899H297.26Z" fill="#0D72B9"/>
<path d="M321.15 104.07H318.33L309.85 91.2401V104.07H307.03V86.8601H309.85L318.33 99.6701V86.8601H321.15V104.07Z" fill="#0D72B9"/>
<path d="M334.6 89.1601V94.2101H340.53V96.5101H334.6V101.8H341.28V104.1H331.78V86.8601H341.28V89.1601H334.6Z" fill="#0D72B9"/>
<path d="M354.21 103.64C353.336 103.284 352.58 102.688 352.03 101.92C351.496 101.164 351.219 100.256 351.24 99.3299H354.24C354.281 100.03 354.593 100.687 355.11 101.16C355.722 101.668 356.506 101.922 357.3 101.87C358.12 101.921 358.93 101.673 359.58 101.17C359.842 100.946 360.051 100.667 360.191 100.352C360.332 100.037 360.399 99.6945 360.39 99.3499C360.412 98.8329 360.233 98.3276 359.89 97.94C359.537 97.5711 359.107 97.2843 358.63 97.0999C357.946 96.8467 357.248 96.633 356.54 96.4599C355.607 96.2248 354.691 95.9241 353.8 95.56C353.091 95.2438 352.475 94.7515 352.01 94.1299C351.485 93.3791 351.225 92.475 351.27 91.56C351.252 90.642 351.509 89.7396 352.01 88.97C352.524 88.2116 353.247 87.6179 354.09 87.2599C355.067 86.8462 356.12 86.645 357.18 86.6699C358.647 86.6045 360.091 87.0459 361.27 87.9199C361.794 88.3291 362.223 88.8465 362.528 89.4367C362.834 90.0269 363.008 90.6761 363.04 91.34H359.92C359.894 91.024 359.801 90.7173 359.647 90.4398C359.494 90.1624 359.284 89.9204 359.03 89.7299C358.412 89.2657 357.652 89.0323 356.88 89.0699C356.163 89.0321 355.455 89.2481 354.88 89.6799C354.624 89.8976 354.423 90.1716 354.291 90.4805C354.159 90.7894 354.1 91.1247 354.12 91.4599C354.102 91.9396 354.275 92.4069 354.6 92.7599C354.944 93.1146 355.36 93.3909 355.82 93.5699C356.476 93.8161 357.143 94.0298 357.82 94.2099C358.768 94.4569 359.697 94.7711 360.6 95.1499C361.324 95.4635 361.955 95.9597 362.43 96.59C362.969 97.35 363.237 98.2693 363.19 99.1999C363.188 100.076 362.942 100.935 362.48 101.68C361.995 102.471 361.304 103.114 360.48 103.54C359.494 104.032 358.402 104.275 357.3 104.25C356.239 104.266 355.186 104.058 354.21 103.64Z" fill="#0D72B9"/>
<path d="M376.07 103.64C375.196 103.284 374.44 102.688 373.89 101.92C373.356 101.164 373.079 100.256 373.1 99.3299H376.1C376.149 100.03 376.464 100.685 376.98 101.16C377.592 101.668 378.376 101.922 379.17 101.87C379.99 101.92 380.799 101.671 381.45 101.17C381.712 100.946 381.921 100.667 382.061 100.352C382.201 100.037 382.269 99.6945 382.26 99.3499C382.282 98.8329 382.103 98.3276 381.76 97.94C381.405 97.5686 380.971 97.2815 380.49 97.0999C379.807 96.8452 379.109 96.6315 378.4 96.4599C377.47 96.2234 376.558 95.9227 375.67 95.56C374.959 95.2465 374.343 94.7537 373.88 94.1299C373.351 93.3811 373.09 92.4755 373.14 91.56C373.116 90.6413 373.375 89.7375 373.88 88.97C374.392 88.2093 375.115 87.6149 375.96 87.2599C376.936 86.8462 377.99 86.645 379.05 86.6699C380.516 86.6045 381.961 87.0459 383.14 87.9199C383.664 88.3291 384.093 88.8465 384.398 89.4367C384.704 90.0269 384.878 90.6761 384.91 91.34H381.79C381.763 91.024 381.67 90.7173 381.517 90.4398C381.364 90.1624 381.153 89.9204 380.9 89.7299C380.282 89.2657 379.522 89.0323 378.75 89.0699C378.032 89.0321 377.324 89.2481 376.75 89.6799C376.494 89.8976 376.292 90.1716 376.161 90.4805C376.029 90.7894 375.97 91.1247 375.99 91.4599C375.972 91.9396 376.145 92.4069 376.47 92.7599C376.814 93.1146 377.23 93.3909 377.69 93.5699C378.346 93.8161 379.013 94.0298 379.69 94.2099C380.637 94.4585 381.566 94.7726 382.47 95.1499C383.194 95.4635 383.825 95.9597 384.3 96.59C384.835 97.352 385.102 98.2698 385.06 99.1999C385.058 100.076 384.812 100.935 384.35 101.68C383.865 102.471 383.174 103.114 382.35 103.54C381.363 104.032 380.272 104.275 379.17 104.25C378.105 104.267 377.049 104.059 376.07 103.64Z" fill="#0D72B9"/>
<path d="M10.7701 64.14C11.8301 63.67 12.5801 62.37 13.3001 61.33C13.5801 60.92 13.6001 60.51 14.2401 60.69C14.3601 60.69 14.7301 60.38 14.7301 60.2C14.7301 59.65 14.8401 59.31 15.5101 59.36C15.7201 59.36 15.9601 59.17 16.1701 59.03C16.3106 58.9143 16.4733 58.8286 16.648 58.7779C16.8228 58.7272 17.0061 58.7126 17.1867 58.7351C17.3673 58.7575 17.5414 58.8166 17.6984 58.9085C17.8555 59.0005 17.9921 59.1235 18.1001 59.27C18.2001 59.38 18.3001 59.48 18.3901 59.59C19.7101 61.18 20.5601 61.44 22.4501 60.45C24.9142 59.1854 27.5533 58.2956 30.2801 57.81C31.4649 57.6687 32.6569 57.5953 33.8501 57.59C33.5701 57.23 33.3101 56.94 33.0901 56.59C32.8701 56.24 32.4901 55.93 32.4701 55.59C32.342 54.2607 32.3053 52.9242 32.3601 51.59C32.4228 50.8589 32.641 50.1498 33.0001 49.51C33.3701 48.84 32.9301 48.43 32.6701 48.03C31.8586 46.7334 31.324 45.283 31.1001 43.77C30.6021 41.1162 30.9775 38.3724 32.1701 35.95C32.3422 35.6908 32.4438 35.3913 32.4648 35.0809C32.4858 34.7705 32.4256 34.46 32.2901 34.18C32.213 33.9664 32.1795 33.7396 32.1915 33.5129C32.2036 33.2862 32.2609 33.0642 32.3601 32.86C33.4401 30.47 32.9401 28.07 32.5001 25.43C31.661 25.758 30.8704 26.1987 30.1501 26.74C28.7178 27.9876 27.0376 28.918 25.2201 29.47C23.9401 29.98 22.6101 30.36 21.3301 30.87C20.947 31.0932 20.6081 31.3846 20.3301 31.7299C20.1501 31.9099 20.0401 32.24 19.8301 32.3C18.8301 32.63 18.6101 33.45 18.3501 34.3C18.3128 34.3757 18.2535 34.4384 18.1801 34.4799C18.0837 34.5167 17.9828 34.5403 17.8801 34.55C17.8801 34.02 17.8301 33.55 17.8101 33.01L17.5901 32.96L16.9301 35.57L16.5601 35.51C16.5601 34.69 16.6301 33.88 16.6701 33.06H16.3801C16.2801 33.89 16.1701 34.72 16.0701 35.55H15.8001C15.6101 34.99 15.4301 34.43 15.2401 33.87L14.3301 35.11L13.9801 34.93L14.7901 32.85L14.1401 32.4C15.0982 31.7741 16.1009 31.2193 17.1401 30.74C19.4734 29.6868 21.6505 28.3172 23.6101 26.67C24.9001 25.73 26.1701 24.76 27.4901 23.86C28.9901 22.86 29.6901 21.23 30.6401 19.79C31.0301 19.19 31.4101 18.58 31.8201 17.99C32.1359 17.5114 32.6033 17.1527 33.1472 16.9714C33.6912 16.79 34.2803 16.7966 34.8201 16.99C36.1601 17.29 37.5201 17.54 39.0501 17.85C39.1207 17.0749 39.1207 16.295 39.0501 15.52C38.6601 14.0623 38.6601 12.5277 39.0501 11.07C39.185 10.6296 39.4275 10.2298 39.7558 9.90683C40.084 9.58381 40.4876 9.34773 40.9301 9.21996C43.6501 8.31996 46.5001 9.29995 46.9301 12.7299C47.0381 13.2622 46.9418 13.8156 46.6601 14.28C46.1296 14.994 45.7858 15.8293 45.6601 16.71C45.5944 17.2962 45.3941 17.8593 45.0749 18.3554C44.7558 18.8515 44.3263 19.2671 43.8201 19.57C43.3501 19.8 43.4201 21.26 43.9601 21.88C44.5001 22.5 45.3601 23.34 46.0701 24.05C46.9801 24.93 47.8601 25.84 48.8101 26.68C49.7601 27.52 50.8101 28.37 51.8601 29.2C52.2801 29.55 52.7201 29.88 53.1701 30.2C53.6201 30.52 53.9601 30.68 53.7201 31.36C53.6501 31.57 54.1801 32.26 54.4901 32.36C56.3501 32.6 57.8901 33.59 59.4901 34.36C61.3494 35.2878 63.414 35.7282 65.4901 35.64C66.6436 35.5786 67.8003 35.6423 68.9401 35.83C69.5627 36.0285 70.1525 36.3184 70.6901 36.69L70.5501 37L68.8101 36.62L68.7301 36.8L70.3201 37.96L70.2301 38.24L67.5801 37.79C67.5801 37.9 67.5101 38 67.4701 38.1L69.6601 39.15C69.3501 39.62 69.3501 39.62 68.4301 39.34L66.9701 38.92L66.8601 39.15L68.4601 40.07C67.8701 40.56 67.3501 40.15 66.8201 39.93C66.0401 39.59 65.2501 39.26 64.4801 38.93C63.9501 38.67 63.4801 38.36 62.9301 38.08C62.792 37.9826 62.6289 37.9271 62.4601 37.92C60.7301 38.14 59.1801 37.44 57.6401 36.86C55.6401 36.11 53.7101 35.22 51.7501 34.41C51.6201 34.35 51.3901 34.3 51.3101 34.41C50.7601 34.9 50.3101 34.59 49.8801 34.25C48.6101 33.36 47.3101 32.52 46.0001 31.69C45.6813 31.5527 45.3446 31.4618 45.0001 31.42C45.0001 31.71 44.8801 32 44.8601 32.29C44.8531 33.0384 44.6965 33.7779 44.3994 34.4648C44.1023 35.1518 43.6707 35.7723 43.1301 36.29C43.7401 36.54 44.2501 36.78 44.7701 36.96C47.0501 37.75 48.7701 39.37 50.7701 40.67C51.9934 41.4724 53.289 42.1587 54.6401 42.72C55.6175 43.0583 56.4755 43.6732 57.1101 44.49C58.0691 45.7537 59.2604 46.8228 60.6201 47.64C62.3601 48.76 63.8801 50.21 65.6201 51.41C67.5698 52.9422 69.7875 54.0986 72.1601 54.82C72.3947 54.9159 72.6517 54.9433 72.9013 54.8991C73.1509 54.8548 73.3828 54.7407 73.5701 54.57C74.1718 54.1051 74.8106 53.6904 75.4801 53.33C75.4201 53.63 75.3601 53.96 75.2901 54.33L73.9001 54.85V55.12C75.0368 55.6472 76.2602 55.9623 77.5101 56.05C78.3815 56.0315 79.2533 56.0682 80.1201 56.16L80.9001 54.94C83.7191 50.6791 85.4686 45.8012 86.0001 40.72C85.3171 41.0617 84.5638 41.2397 83.8001 41.24C82.4647 41.2333 81.1867 40.6965 80.2471 39.7476C79.3076 38.7986 78.7835 37.5153 78.7901 36.18C78.7967 34.8446 79.3336 33.5666 80.2825 32.627C81.2314 31.6874 82.5147 31.1633 83.8501 31.17C84.4885 31.1681 85.1209 31.2939 85.7101 31.54C85.0301 26.16 83.7101 20.95 80.4601 16.3C72.3201 4.51996 60.6201 0.219956 46.1401 0.0799561C44.8201 0.229956 42.7501 0.329955 40.7301 0.719955C30.4701 2.71996 21.4501 7.04996 15.1001 15.63C14.3701 16.63 13.6801 17.63 13.1001 18.68C9.91629 23.6177 8.58421 29.5236 9.34009 35.35C9.58882 36.9132 9.48826 38.5122 9.04564 40.032C8.60301 41.5518 7.82931 42.9547 6.78009 44.14C4.92009 46.36 2.95009 48.52 1.19009 50.83C-0.699908 53.3 -0.0599129 55.25 2.81009 56.36C3.13717 56.4881 3.471 56.5982 3.81009 56.69C7.28009 57.69 7.86009 58.69 6.81009 62.24C6.57947 62.8313 6.49628 63.4699 6.56772 64.1006C6.63915 64.7313 6.86305 65.3352 7.22009 65.86C7.50602 66.5981 7.62552 67.3903 7.57008 68.18C7.57008 68.18 8.84009 65 10.7701 64.14Z" fill="#019147"/>
<path d="M74.42 76.23C73.6741 74.1355 73.3967 71.9028 73.6075 69.6895C73.8183 67.4762 74.5121 65.336 75.64 63.42C76.42 62.02 77.23 60.64 78.05 59.27C77.5241 59.4088 76.9896 59.5124 76.45 59.58C74.75 59.8054 73.1303 60.4403 71.73 61.43C71.2763 61.6013 70.7779 61.6135 70.3165 61.4645C69.855 61.3155 69.4578 61.0142 69.19 60.61C68.9549 60.2786 68.807 59.8935 68.76 59.49C68.7185 59.0926 68.5813 58.7113 68.3601 58.3786C68.1389 58.046 67.8403 57.7719 67.49 57.58C65.4484 56.0694 63.1982 54.8635 60.81 54C58.1702 53.181 55.841 51.5805 54.13 49.41C53.83 48.8638 53.4092 48.3933 52.8996 48.0346C52.3901 47.6758 51.8053 47.4382 51.19 47.34C49.36 47.14 47.51 47.01 45.67 46.97C45.3321 46.9871 45.0099 47.1179 44.7558 47.3412C44.5016 47.5645 44.3304 47.8671 44.27 48.2C44.1012 48.7867 43.8117 49.3317 43.42 49.8C43.1496 50.0559 42.9374 50.3669 42.7977 50.712C42.6579 51.057 42.5939 51.428 42.61 51.8C42.67 52.8 42.55 53.71 42.61 54.65C42.69 55.43 42.24 55.77 41.75 56.18C41.467 56.4135 41.2499 56.7168 41.12 57.06C40.6 58.61 40.2 60.2 39.63 61.73C39.4034 62.4356 38.9432 63.043 38.3251 63.4521C37.707 63.8611 36.968 64.0473 36.23 63.98C32.75 63.98 29.23 63.93 25.79 64.14C23.9115 64.3622 22.0504 64.713 20.22 65.19C18.8275 65.3602 17.5109 65.918 16.42 66.8C15.9274 67.1569 15.338 67.3557 14.73 67.37C13.3246 67.5164 11.9845 68.0379 10.85 68.88C9.99639 69.4349 9.06666 69.8627 8.08996 70.15C7.99518 70.1907 7.89311 70.2117 7.78995 70.2117C7.6868 70.2117 7.58474 70.1907 7.48997 70.15C7.46434 70.5815 7.59576 71.0078 7.85996 71.35C9.85996 73.24 9.39996 75.14 8.68996 77.35C8.1664 78.6658 8.17763 80.1341 8.72126 81.4418C9.26488 82.7495 10.2979 83.7931 11.6 84.35C13.109 85.1125 14.7406 85.6034 16.42 85.8C19.85 86.17 23.31 86.24 26.76 86.45C29.93 86.64 31.93 88.29 33.28 91.17C35.54 95.99 37.99 100.73 40.48 105.44C42.4 109.08 43.39 109.44 47.16 107.86C51.7965 105.887 56.1782 103.362 60.2099 100.34L67.34 94.22C69.9077 91.7062 72.3157 89.0343 74.55 86.22C75.296 85.3682 75.7858 84.3228 75.9627 83.2044C76.1397 82.086 75.9966 80.9404 75.55 79.9C75.12 78.7 74.85 77.44 74.42 76.23Z" fill="#0D72B9"/>
</svg>
