<svg width="16" height="15" viewBox="0 0 16 15" fill="none" xmlns="http://www.w3.org/2000/svg">
<g clip-path="url(#clip0_188_1382)">
<path d="M2.51522 14.403C2.05405 14.403 1.61177 14.2198 1.28567 13.8937C0.959568 13.5676 0.776367 13.1254 0.776367 12.6642V2.23104C0.776367 1.76987 0.959568 1.32759 1.28567 1.00149C1.61177 0.675388 2.05405 0.492188 2.51522 0.492188H12.9484C13.4095 0.492188 13.8518 0.675388 14.1779 1.00149C14.504 1.32759 14.6872 1.76987 14.6872 2.23104V12.6642C14.6872 13.1254 14.504 13.5676 14.1779 13.8937C13.8518 14.2198 13.4095 14.403 12.9484 14.403H2.51522ZM2.51522 12.6642H6.86237V8.31704H2.51522V12.6642ZM12.9484 8.31704H8.60122V12.6642H12.9484V8.31704ZM12.9484 6.57819V2.23104H8.60122V6.57819H12.9484ZM6.86237 2.23104H2.51522V6.57819H6.86237V2.23104Z" fill="white"/>
</g>
<defs>
<clipPath id="clip0_188_1382">
<rect width="14.7803" height="14.7803" fill="white" transform="translate(0.341797 0.0576172)"/>
</clipPath>
</defs>
</svg>
