<svg width="20" height="20" viewBox="0 0 20 20" fill="none" xmlns="http://www.w3.org/2000/svg">
<path d="M12.5244 11.7334L13.5825 12.9334C14.7215 11.15 14.7068 8.73335 13.5311 6.97502C13.2739 6.61669 12.811 6.55835 12.495 6.85002C12.179 7.14169 12.1276 7.66669 12.3848 8.02502C13.0902 9.11669 13.1416 10.5834 12.5244 11.7334Z" fill="#041B32"/>
<path d="M15.5317 10C15.517 11.3584 15.0467 12.6667 14.2237 13.6584L15.2671 14.8417C16.3693 13.5334 16.9866 11.8084 17.0013 10C16.9719 7.79169 16.0681 5.71669 14.5323 4.35835C14.2163 4.06669 13.7534 4.10835 13.4962 4.46669C13.239 4.82502 13.2758 5.35002 13.5917 5.64169C14.7821 6.69169 15.4949 8.29169 15.5317 10Z" fill="#041B32"/>
<path d="M11.1218 10.1417V3.33337C11.1218 2.87503 10.7985 2.50003 10.3943 2.4917C10.24 2.4917 10.0931 2.5417 9.96814 2.6417L6.71289 5.1667L11.1218 10.1417Z" fill="#041B32"/>
<path d="M3.58221 6.30835H1.5688C1.16465 6.30835 0.833984 6.68335 0.833984 7.14168V12.8583C0.833984 13.3167 1.16465 13.6917 1.5688 13.6917H5.2429L9.95309 17.3583C10.0854 17.45 10.2323 17.5 10.3866 17.5C10.7908 17.5 11.1214 17.125 11.1214 16.6667V14.8583L3.58221 6.30835Z" fill="#041B32"/>
<path d="M3.55916 2.74167C3.27258 2.41667 2.80229 2.41667 2.51572 2.74167C2.22914 3.06667 2.22914 3.60001 2.51572 3.92501L14.2728 17.2583C14.5594 17.5833 15.0223 17.5833 15.3089 17.2667C15.3089 17.2667 15.3089 17.2667 15.3163 17.2583C15.6028 16.9333 15.6028 16.4083 15.3236 16.0833C15.3236 16.0833 15.3236 16.0833 15.3163 16.075L3.55916 2.74167Z" fill="#041B32"/>
</svg>
