<svg width="359" height="18" viewBox="0 0 359 18" fill="none" xmlns="http://www.w3.org/2000/svg">
<rect x="0.741211" y="8.5293" width="161.063" height="0.809362" fill="#0B0B0B" fill-opacity="0.1"/>
<path d="M174.666 13.5636C174.027 13.5636 173.435 13.447 172.892 13.2139C172.356 12.9808 171.886 12.6571 171.48 12.2427C171.083 11.8197 170.772 11.3276 170.548 10.7664C170.332 10.1966 170.224 9.57504 170.224 8.90165C170.224 8.22826 170.332 7.61099 170.548 7.04983C170.772 6.48004 171.083 5.98795 171.48 5.57355C171.886 5.15053 172.356 4.82246 172.892 4.58937C173.435 4.35627 174.027 4.23972 174.666 4.23972C175.305 4.23972 175.892 4.35627 176.427 4.58937C176.971 4.82246 177.441 5.15053 177.838 5.57355C178.244 5.99658 178.555 6.49299 178.771 7.06278C178.995 7.62394 179.107 8.2369 179.107 8.90165C179.107 9.56641 178.995 10.1837 178.771 10.7535C178.555 11.3146 178.244 11.8067 177.838 12.2298C177.441 12.6528 176.971 12.9808 176.427 13.2139C175.892 13.447 175.305 13.5636 174.666 13.5636ZM174.666 12.2039C175.106 12.2039 175.507 12.1218 175.87 11.9578C176.241 11.7938 176.561 11.565 176.828 11.2715C177.096 10.9693 177.303 10.6197 177.45 10.2225C177.605 9.81677 177.683 9.37648 177.683 8.90165C177.683 8.42683 177.605 7.99085 177.45 7.59372C177.303 7.18796 177.096 6.83832 176.828 6.54479C176.561 6.24263 176.241 6.00953 175.87 5.8455C175.507 5.68147 175.106 5.59945 174.666 5.59945C174.225 5.59945 173.82 5.68147 173.448 5.8455C173.086 6.00953 172.766 6.23831 172.49 6.53184C172.222 6.82537 172.015 7.17501 171.869 7.58077C171.722 7.9779 171.648 8.41819 171.648 8.90165C171.648 9.37648 171.722 9.81677 171.869 10.2225C172.015 10.6283 172.222 10.9779 172.49 11.2715C172.766 11.565 173.086 11.7938 173.448 11.9578C173.82 12.1218 174.225 12.2039 174.666 12.2039ZM181.001 13.4341V4.36922H184.86C185.378 4.36922 185.853 4.49872 186.285 4.75772C186.725 5.00808 187.075 5.35341 187.334 5.7937C187.593 6.22536 187.722 6.71314 187.722 7.25703C187.722 7.74912 187.593 8.20668 187.334 8.62971C187.075 9.05273 186.729 9.39374 186.298 9.65274C185.866 9.9031 185.387 10.0283 184.86 10.0283H182.4V13.4341H181.001ZM186.388 13.4341L184.083 9.34194L185.521 9.0182L188.085 13.447L186.388 13.4341ZM182.4 8.68151H184.99C185.24 8.68151 185.464 8.62107 185.663 8.50021C185.862 8.37071 186.017 8.19805 186.129 7.98222C186.241 7.75775 186.298 7.51171 186.298 7.24408C186.298 6.94192 186.224 6.6786 186.077 6.45414C185.939 6.22104 185.741 6.03975 185.482 5.91025C185.231 5.78075 184.946 5.716 184.627 5.716H182.4V8.68151Z" fill="#0B0B0B"/>
<rect x="197.4" y="8.5293" width="161.063" height="0.809362" fill="#0B0B0B" fill-opacity="0.1"/>
</svg>
