<svg width="70" height="71" viewBox="0 0 70 71" fill="none" xmlns="http://www.w3.org/2000/svg">
<g clip-path="url(#clip0_225_1296)">
<path d="M34.9997 30.7875L36.2812 28.568C36.6667 27.9003 36.4095 27.3108 36.2812 27.0883C36.1528 26.8659 35.7708 26.3484 34.9997 26.3484C34.2286 26.3484 33.8466 26.8657 33.7182 27.0883C33.5899 27.3108 33.3327 27.9001 33.7182 28.568L34.9997 30.7875Z" fill="#009345"/>
<path d="M20.979 49.1536C20.8506 49.376 20.5934 49.9654 20.979 50.6333C21.3644 51.301 22.0034 51.3731 22.2603 51.3731C22.5172 51.3731 23.1562 51.301 23.5418 50.6332L24.8232 48.4138H22.2603C21.4894 48.4138 21.1075 48.9312 20.979 49.1536Z" fill="#009345"/>
<path d="M31.9277 44.3124H38.0727L35.0002 38.9907L31.9277 44.3124Z" fill="#009345"/>
<path d="M45.9375 18.353C44.8049 18.353 43.8867 17.4348 43.8867 16.3022V0.57959H14.4922C11.0998 0.57959 8.33984 3.33953 8.33984 6.73193V64.4272C8.33984 67.8196 11.0998 70.5796 14.4922 70.5796H55.5078C58.9002 70.5796 61.6602 67.8196 61.6602 64.4272V18.353H45.9375ZM52.5727 52.6842C51.564 54.4315 49.7571 55.4748 47.7395 55.4748C45.7216 55.4748 43.9147 54.4316 42.9059 52.6842L40.4404 48.4139H29.5596L27.0941 52.6842C26.0853 54.4315 24.2782 55.4748 22.2605 55.4748H22.2604C20.2427 55.4748 18.4358 54.4315 17.4271 52.6841C16.4183 50.9368 16.4181 48.8502 17.4271 47.1029C18.436 45.3555 20.2429 44.3124 22.2605 44.3124H27.1914L32.6319 34.8892L30.1664 30.6189C29.1576 28.8715 29.1575 26.785 30.1664 25.0376C31.1753 23.2902 32.9822 22.2469 35 22.2469C37.0178 22.2469 38.8247 23.2901 39.8336 25.0376C40.8425 26.785 40.8424 28.8715 39.8336 30.6189L37.368 34.8892L42.8084 44.3124H47.7393C49.757 44.3124 51.5639 45.3555 52.5727 47.1029C53.5817 48.8503 53.5816 50.9368 52.5727 52.6842Z" fill="#009345"/>
<path d="M47.7397 48.4138H45.1768L46.4582 50.6333C46.8438 51.301 47.4828 51.3731 47.7397 51.3731C47.9966 51.3731 48.6356 51.301 49.021 50.6333C49.4066 49.9654 49.1494 49.376 49.021 49.1536C48.8926 48.9312 48.5106 48.4138 47.7397 48.4138Z" fill="#009345"/>
<path d="M47.9883 1.78027V14.2513H60.4585L47.9883 1.78027Z" fill="#009345"/>
</g>
<defs>
<clipPath id="clip0_225_1296">
<rect width="70" height="70" fill="white" transform="translate(0 0.57959)"/>
</clipPath>
</defs>
</svg>
