<svg width="100" height="100" viewBox="0 0 100 100" fill="none" xmlns="http://www.w3.org/2000/svg">
<path d="M38.2812 69.5312C41.603 67.0691 45.643 65.625 50 65.625C54.357 65.625 58.3969 67.0691 61.7188 69.5312" stroke="#D20000" stroke-width="6.25" stroke-linecap="round"/>
<path d="M57.8125 44.1406C57.8125 45.6946 58.2241 47.185 58.9566 48.2838C59.6892 49.3827 60.6827 50 61.7188 50C62.7548 50 63.7483 49.3827 64.4809 48.2838C65.2134 47.185 65.625 45.6946 65.625 44.1406C65.625 42.5866 65.2134 41.0963 64.4809 39.9974C63.7483 38.8986 62.7548 38.2812 61.7188 38.2812C60.6827 38.2812 59.6892 38.8986 58.9566 39.9974C58.2241 41.0963 57.8125 42.5866 57.8125 44.1406Z" fill="#D20000"/>
<path d="M34.375 44.1406C34.375 44.9101 34.476 45.672 34.6723 46.3829C34.8687 47.0938 35.1564 47.7397 35.5191 48.2838C35.8818 48.8279 36.3125 49.2595 36.7864 49.554C37.2603 49.8484 37.7683 50 38.2812 50C38.7942 50 39.3022 49.8484 39.7761 49.554C40.25 49.2595 40.6807 48.8279 41.0434 48.2838C41.4061 47.7397 41.6938 47.0938 41.8902 46.3829C42.0865 45.672 42.1875 44.9101 42.1875 44.1406C42.1875 42.5866 41.7759 41.0963 41.0434 39.9974C40.3108 38.8986 39.3173 38.2812 38.2812 38.2812C37.2452 38.2812 36.2517 38.8986 35.5191 39.9974C34.7866 41.0963 34.375 42.5866 34.375 44.1406Z" fill="#D20000"/>
<path d="M10.9375 50C10.9375 31.5857 10.9375 22.3786 16.6581 16.6581C22.3786 10.9375 31.5857 10.9375 50 10.9375C68.4141 10.9375 77.6215 10.9375 83.3418 16.6581C89.0625 22.3786 89.0625 31.5857 89.0625 50C89.0625 68.4141 89.0625 77.6215 83.3418 83.3418C77.6215 89.0625 68.4141 89.0625 50 89.0625C31.5857 89.0625 22.3786 89.0625 16.6581 83.3418C10.9375 77.6215 10.9375 68.4141 10.9375 50Z" stroke="#D20000" stroke-width="6.25"/>
</svg>
