<svg width="16" height="15" viewBox="0 0 16 15" fill="none" xmlns="http://www.w3.org/2000/svg">
<g clip-path="url(#clip0_188_1378)">
<path d="M13.3384 0.468262C13.7739 0.468262 14.1917 0.641284 14.4996 0.949267C14.8076 1.25725 14.9806 1.67496 14.9806 2.11052V12.7852C14.9806 13.2207 14.8076 13.6384 14.4996 13.9464C14.1917 14.2544 13.7739 14.4274 13.3384 14.4274H2.66374C2.22819 14.4274 1.81047 14.2544 1.50249 13.9464C1.19451 13.6384 1.02148 13.2207 1.02148 12.7852V2.11052C1.02148 1.67496 1.19451 1.25725 1.50249 0.949267C1.81047 0.641284 2.22819 0.468262 2.66374 0.468262H13.3384ZM13.3384 2.11052H2.66374V12.7852H13.3384V2.11052ZM10.875 8.67953C11.0843 8.67976 11.2856 8.7599 11.4378 8.90357C11.59 9.04725 11.6815 9.24361 11.6938 9.45254C11.7061 9.66146 11.6381 9.86719 11.5038 10.0277C11.3694 10.1882 11.1789 10.2913 10.9711 10.316L10.875 10.3218H5.12712C4.91783 10.3216 4.71653 10.2414 4.56434 10.0977C4.41216 9.95407 4.32058 9.75771 4.30831 9.54878C4.29605 9.33985 4.36402 9.13412 4.49835 8.97363C4.63268 8.81314 4.82322 8.71 5.03105 8.68528L5.12712 8.67953H10.875ZM10.875 4.5739C11.0843 4.57413 11.2856 4.65427 11.4378 4.79794C11.59 4.94161 11.6815 5.13797 11.6938 5.3469C11.7061 5.55583 11.6381 5.76156 11.5038 5.92205C11.3694 6.08254 11.1789 6.18568 10.9711 6.2104L10.875 6.21615H5.12712C4.91783 6.21592 4.71653 6.13578 4.56434 5.99211C4.41216 5.84844 4.32058 5.65207 4.30831 5.44315C4.29605 5.23422 4.36402 5.02849 4.49835 4.868C4.63268 4.70751 4.82322 4.60436 5.03105 4.57964L5.12712 4.5739H10.875Z" fill="#11142D"/>
</g>
<defs>
<clipPath id="clip0_188_1378">
<rect width="14.7803" height="14.7803" fill="white" transform="translate(0.611328 0.0576172)"/>
</clipPath>
</defs>
</svg>
