<svg width="19" height="20" viewBox="0 0 19 20" fill="none" xmlns="http://www.w3.org/2000/svg">
<g clip-path="url(#clip0_188_1330)">
<path d="M6.84486 7.27316V9.44673H4.54523L3.73014 15.9674H16.4825L15.6674 9.44673H13.3667V7.27316H16.627C16.8919 7.27323 17.1476 7.37001 17.3461 7.54532C17.5446 7.72062 17.6723 7.96238 17.7051 8.22518L18.7919 16.9195C18.811 17.0724 18.7973 17.2277 18.7518 17.375C18.7062 17.5223 18.6299 17.6582 18.5278 17.7737C18.4258 17.8893 18.3004 17.9818 18.1598 18.0451C18.0193 18.1085 17.8669 18.1412 17.7127 18.141H2.49772C2.34356 18.1411 2.19114 18.1084 2.05058 18.0451C1.91002 17.9818 1.78454 17.8893 1.68247 17.7738C1.58041 17.6582 1.50408 17.5223 1.45858 17.375C1.41308 17.2277 1.39943 17.0724 1.41854 16.9195L2.50533 8.22518C2.53819 7.9622 2.66602 7.72028 2.86477 7.54496C3.06351 7.36963 3.31948 7.27297 3.58451 7.27316H6.84486ZM10.1052 0.752441L14.4524 5.09958H11.192V12.7071H9.01844V5.09958H5.75808L10.1052 0.752441Z" fill="white"/>
</g>
<defs>
<clipPath id="clip0_188_1330">
<rect width="18.4754" height="18.4754" fill="white" transform="translate(0.458984 0.70166)"/>
</clipPath>
</defs>
</svg>
